<svg width="25" height="24" viewBox="0 0 25 24" fill="none" xmlns="http://www.w3.org/2000/svg">
<path d="M24.3182 12C24.3182 18.3428 19.0803 23.5 12.6 23.5C6.11971 23.5 0.881836 18.3428 0.881836 12C0.881836 5.65718 6.11971 0.5 12.6 0.5C19.0803 0.5 24.3182 5.65718 24.3182 12Z" stroke="#899D9D"/>
<path d="M5.39645 14.568C6.32445 13.7147 7.00178 13.0747 7.42845 12.648C7.85511 12.2107 8.15378 11.8373 8.32445 11.528C8.50578 11.2187 8.59645 10.904 8.59645 10.584C8.59645 10.1893 8.49512 9.848 8.29245 9.56C8.08978 9.26133 7.80178 9.112 7.42845 9.112C7.03378 9.112 6.70845 9.288 6.45245 9.64C6.20711 9.98133 5.95645 10.5147 5.70045 11.24C5.70045 11.2507 5.67911 11.256 5.63645 11.256C5.54045 11.256 5.49778 11.24 5.50845 11.208L6.21245 8.472C6.21245 8.45067 6.23378 8.44 6.27645 8.44C6.30845 8.44 6.33511 8.45067 6.35645 8.472C6.38845 8.48267 6.39911 8.49333 6.38845 8.504C6.37778 8.55733 6.37245 8.62133 6.37245 8.696C6.37245 8.87733 6.45245 8.968 6.61245 8.968C6.70845 8.968 6.86845 8.93067 7.09245 8.856C7.55111 8.696 7.97245 8.616 8.35645 8.616C8.94311 8.616 9.40178 8.75467 9.73245 9.032C10.0631 9.30933 10.2284 9.67733 10.2284 10.136C10.2284 10.6907 10.0098 11.1973 9.57245 11.656C9.14578 12.104 8.55378 12.5947 7.79645 13.128L7.15645 13.608C7.12445 13.64 7.11378 13.6667 7.12445 13.688C7.14578 13.7093 7.18311 13.72 7.23645 13.72C8.08978 13.72 8.72978 13.704 9.15645 13.672C9.59378 13.64 9.93512 13.5707 10.1804 13.464C10.4364 13.3467 10.6018 13.1653 10.6764 12.92C10.6871 12.888 10.7191 12.872 10.7724 12.872C10.8364 12.872 10.8684 12.888 10.8684 12.92L10.5324 14.824C10.5324 14.8667 10.5164 14.9093 10.4844 14.952C10.4631 14.984 10.4311 15 10.3884 15H5.49245C5.44978 15 5.41245 14.968 5.38045 14.904C5.35911 14.84 5.34845 14.776 5.34845 14.712C5.34845 14.648 5.36445 14.6 5.39645 14.568ZM12.9219 15.176C12.6233 15.176 12.3833 15.0907 12.2019 14.92C12.0313 14.7387 11.9459 14.4987 11.9459 14.2C11.9459 13.9227 12.0313 13.6987 12.2019 13.528C12.3833 13.3573 12.6233 13.272 12.9219 13.272C13.2206 13.272 13.4499 13.3573 13.6099 13.528C13.7806 13.688 13.8659 13.912 13.8659 14.2C13.8659 14.5093 13.7806 14.7493 13.6099 14.92C13.4499 15.0907 13.2206 15.176 12.9219 15.176ZM17.3864 18.392C17.3118 18.584 17.1998 18.712 17.0504 18.776L15.7384 19.4H15.7224C15.6904 19.4 15.6638 19.384 15.6424 19.352C15.6211 19.3307 15.6158 19.3093 15.6264 19.288L19.7864 10.344C19.8291 10.2693 19.8078 10.232 19.7224 10.232C18.2078 10.232 17.1571 10.2533 16.5704 10.296C15.9838 10.3387 15.5891 10.4293 15.3864 10.568C15.1944 10.7067 15.0504 10.9573 14.9544 11.32C14.9331 11.3413 14.9064 11.352 14.8744 11.352C14.8424 11.352 14.8104 11.3467 14.7784 11.336C14.7571 11.3147 14.7518 11.2933 14.7624 11.272L15.4824 8.392C15.4931 8.37067 15.5304 8.36533 15.5944 8.376C15.6584 8.376 15.6851 8.38667 15.6744 8.408C15.6638 8.45067 15.6584 8.504 15.6584 8.568C15.6584 8.67467 15.7064 8.744 15.8024 8.776C15.9091 8.808 16.1171 8.824 16.4264 8.824H20.6664C20.7091 8.824 20.7464 8.85067 20.7784 8.904C20.8211 8.94667 20.8318 8.98933 20.8104 9.032L17.3864 18.392Z" fill="#899D9D"/>
</svg>
